<?xml version="1.0" encoding="UTF-8" standalone="no"?>
<svg
   xmlns:dc="http://purl.org/dc/elements/1.1/"
   xmlns:cc="http://creativecommons.org/ns#"
   xmlns:rdf="http://www.w3.org/1999/02/22-rdf-syntax-ns#"
   xmlns:svg="http://www.w3.org/2000/svg"
   xmlns="http://www.w3.org/2000/svg"
   xmlns:sodipodi="http://sodipodi.sourceforge.net/DTD/sodipodi-0.dtd"
   xmlns:inkscape="http://www.inkscape.org/namespaces/inkscape"
   inkscape:version="1.0beta2 (2b71d25, 2019-12-03)"
   sodipodi:docname="person-icon.svg"
   id="svg839"
   version="1.1"
   viewBox="0 0 512 512"
   height="512"
   width="512">
  <metadata
     id="metadata845">
    <rdf:RDF>
      <cc:Work
         rdf:about="">
        <dc:format>image/svg+xml</dc:format>
        <dc:type
           rdf:resource="http://purl.org/dc/dcmitype/StillImage" />
      </cc:Work>
    </rdf:RDF>
  </metadata>
  <defs
     id="defs843" />
  <sodipodi:namedview
     inkscape:current-layer="svg839"
     inkscape:window-maximized="0"
     inkscape:window-y="23"
     inkscape:window-x="0"
     inkscape:cy="256"
     inkscape:cx="256"
     inkscape:zoom="1.2636719"
     showgrid="false"
     id="namedview841"
     inkscape:window-height="855"
     inkscape:window-width="1440"
     inkscape:pageshadow="2"
     inkscape:pageopacity="0"
     guidetolerance="10"
     gridtolerance="10"
     objecttolerance="10"
     borderopacity="1"
     inkscape:document-rotation="0"
     bordercolor="#666666"
     pagecolor="#ffffff" />
  <title
     id="title833">ionicons-v5-j</title>
  <path
     style="fill:#697785;fill-opacity:1"
     id="path835"
     d="M332.64,64.58C313.18,43.57,286,32,256,32c-30.16,0-57.43,11.5-76.8,32.38-19.58,21.11-29.12,49.8-26.88,80.78C156.76,206.28,203.27,256,256,256s99.16-49.71,103.67-110.82C361.94,114.48,352.34,85.85,332.64,64.58Z" />
  <path
     style="fill:#697785;fill-opacity:1"
     id="path837"
     d="M432,480H80A31,31,0,0,1,55.8,468.87c-6.5-7.77-9.12-18.38-7.18-29.11C57.06,392.94,83.4,353.61,124.8,326c36.78-24.51,83.37-38,131.2-38s94.42,13.5,131.2,38c41.4,27.6,67.74,66.93,76.18,113.75,1.94,10.73-.68,21.34-7.18,29.11A31,31,0,0,1,432,480Z" />
</svg>
